<?xml version="1.0" encoding="UTF-8" standalone="no"?>
<!-- Created with Inkscape (http://www.inkscape.org/) -->

<svg
   xmlns:dc="http://purl.org/dc/elements/1.1/"
   xmlns:cc="http://creativecommons.org/ns#"
   xmlns:rdf="http://www.w3.org/1999/02/22-rdf-syntax-ns#"
   xmlns:svg="http://www.w3.org/2000/svg"
   xmlns="http://www.w3.org/2000/svg"
   xmlns:sodipodi="http://sodipodi.sourceforge.net/DTD/sodipodi-0.dtd"
   xmlns:inkscape="http://www.inkscape.org/namespaces/inkscape"
   width="45.686764mm"
   height="54.390278mm"
   viewBox="0 0 161.88223 192.72146"
   id="svg2"
   version="1.1"
   inkscape:version="0.91 r"
   sodipodi:docname="placeholder.svg">
  <defs
     id="defs4" />
  <sodipodi:namedview
     id="base"
     pagecolor="#ffffff"
     bordercolor="#666666"
     borderopacity="1.0"
     inkscape:pageopacity="0.0"
     inkscape:pageshadow="2"
     inkscape:zoom="1.4"
     inkscape:cx="141.58103"
     inkscape:cy="105.9724"
     inkscape:document-units="px"
     inkscape:current-layer="layer1"
     showgrid="true"
     inkscape:window-width="1920"
     inkscape:window-height="1056"
     inkscape:window-x="0"
     inkscape:window-y="24"
     inkscape:window-maximized="1"
     fit-margin-top="0"
     fit-margin-left="0"
     fit-margin-right="0"
     fit-margin-bottom="0">
    <inkscape:grid
       type="xygrid"
       id="grid4136"
       originx="-190.09717"
       originy="-640.79576" />
  </sodipodi:namedview>
  <metadata
     id="metadata7">
    <rdf:RDF>
      <cc:Work
         rdf:about="">
        <dc:format>image/svg+xml</dc:format>
        <dc:type
           rdf:resource="http://purl.org/dc/dcmitype/StillImage" />
        <dc:title></dc:title>
      </cc:Work>
    </rdf:RDF>
  </metadata>
  <g
     inkscape:label="Layer 1"
     inkscape:groupmode="layer"
     id="layer1"
     transform="translate(-190.09717,-218.84502)">
    <path
       style="fill:none;fill-rule:evenodd;stroke:#000000;stroke-width:1px;stroke-linecap:butt;stroke-linejoin:miter;stroke-opacity:1"
       d="m 290,222.3622 c -9.47494,-3.15831 -5.55974,-2.85714 -11.42857,-2.85714 -1.66667,0 -3.37033,-0.34921 -5,0 -1.77303,0.37994 -3.23316,1.73513 -5,2.14286 -1.39199,0.32123 -2.85714,0 -4.28572,0 -1.66666,0 -3.33756,-0.11875 -5,0 -8.43197,0.60228 -1.71007,0.60609 -10.71428,2.85714 -0.92395,0.23099 -1.94688,-0.28008 -2.85714,0 -2.24127,0.68962 -4.18731,2.16752 -6.42858,2.85714 -0.91026,0.28009 -1.91433,-0.13468 -2.85714,0 -2.26675,0.32383 -4.37938,2.03747 -6.42857,2.85715 -0.22107,0.0884 -0.50133,-0.10648 -0.71429,0 -0.60233,0.30117 -0.82623,1.1274 -1.42857,1.42857 -0.21296,0.10648 -0.47619,0 -0.71428,0 -0.71429,0.23809 -1.46942,0.37757 -2.14286,0.71428 -0.30117,0.15059 -0.47619,0.4762 -0.71429,0.71429 -0.23809,0.2381 -0.47619,0.47619 -0.71428,0.71429 -0.71429,0.71428 -1.53677,1.33473 -2.14286,2.14285 -0.31944,0.42592 -0.41896,0.98559 -0.71428,1.42857 -0.6551,0.98265 -1.10195,0.73463 -2.14286,1.42858 -0.28017,0.18677 -0.47619,0.47619 -0.71429,0.71428 -0.47619,0.47619 -0.95238,0.95238 -1.42857,1.42857 -0.47619,0.47619 -0.95238,0.95238 -1.42857,1.42857 -0.47619,0.4762 -1.02451,0.88983 -1.42857,1.42858 -0.63888,0.85183 -0.7634,2.02567 -1.42857,2.85714 -0.63104,0.7888 -1.58253,1.30236 -2.14286,2.14286 -0.41765,0.62647 -0.37757,1.46942 -0.71429,2.14285 -0.62087,1.24176 -1.37275,2.41628 -2.14285,3.57143 -1.32072,1.98107 -3.10443,3.64704 -4.28572,5.71429 -0.37355,0.65372 -0.37757,1.46942 -0.71428,2.14285 -0.38392,0.76784 -1.00266,1.39751 -1.42857,2.14286 -0.52829,0.9245 -0.91147,1.92635 -1.42858,2.85714 -0.63452,1.14216 -3.09898,4.89313 -3.57142,6.42858 -0.64556,2.09805 -0.82553,4.3179 -1.42858,6.42857 -2.11891,7.41621 -1.30332,-0.78866 -2.14285,9.28571 -0.0114,0.13625 0.0115,5.66242 0,5.71429 -0.27815,1.25165 -1.19921,2.30993 -1.42857,3.57143 -0.25555,1.40552 0,2.85714 0,4.28571 0,4.28571 0,8.57143 0,12.85714 0,5.2381 0,10.47619 0,15.71429 0,1.90476 0,3.80952 0,5.71428 0,1.42858 -0.21723,2.87376 0,4.28572 0.001,0.01 2.8392,9.93272 2.85714,10 3.00674,11.27526 -0.39619,0.39847 3.57143,10.71428 1.84469,4.7962 1.11903,5.07406 4.28571,10 1.00559,1.56425 2.45568,2.79805 3.57143,4.28572 3.47543,4.63391 6.02989,10.01021 10,14.28571 2.5145,2.70793 7.90058,6.36066 10.71429,8.57143 1.46222,1.14889 2.67944,2.63444 4.28571,3.57143 0.0184,0.0108 8.42163,2.80267 8.57143,2.85714 5.35535,1.9474 1.90197,1.07059 7.85714,2.85715 0.94029,0.28208 1.88303,0.59252 2.85714,0.71428 0.94503,0.11813 1.95364,-0.30117 2.85715,0 0.63887,0.21296 0.8033,1.17847 1.42857,1.42857 0.6632,0.26528 1.42857,0 2.14286,0 0.47619,0 0.95238,0 1.42857,0 2.85714,0 5.71428,0 8.57143,0 1.90476,0 3.80952,0 5.71428,0 1.66667,0 3.35009,0.23571 5,0 1.71594,-0.24513 3.3184,-1.00817 5,-1.42857 1.17781,-0.29445 2.40016,-0.39485 3.57143,-0.71428 2.88205,-0.78602 5.11846,-1.76167 7.85714,-2.85715 8.87363,-3.54945 -2.23004,0.81093 7.85715,-2.85714 2.38258,-0.40479 4.23291,-2.03377 6.42857,-2.85714 0.91918,-0.3447 1.92583,-0.40385 2.85714,-0.71429 1.21638,-0.40546 2.39292,-0.92349 3.57143,-1.42857 0.48935,-0.20972 0.99534,-0.40484 1.42857,-0.71429 1.24058,-0.88612 2.33847,-1.96044 3.57143,-2.85714 1.38854,-1.00985 2.89717,-1.84729 4.28571,-2.85714 1.23296,-0.8967 2.33847,-1.96044 3.57143,-2.85714 1.38854,-1.00985 3.15511,-1.56503 4.28572,-2.85715 0.64644,-0.7388 0.40384,-1.92582 0.71428,-2.85714 0.40546,-1.21638 0.80589,-2.4506 1.42857,-3.57143 1.80659,-3.25185 3.2052,-3.3619 5.71429,-6.42857 1.08722,-1.32883 2.03499,-2.77843 2.85714,-4.28571 0.61398,-1.12563 0.898,-2.40418 1.42857,-3.57143 1.8213,-4.00685 2.26814,-3.94726 3.57143,-7.85715 1.2001,-3.6003 1.87792,-7.04219 2.85714,-10.71428 0.44663,-1.67483 1.16501,-3.2868 1.42858,-5 0.21722,-1.41196 -0.095,-2.86031 0,-4.28572 0.14341,-2.15126 0.57086,-4.2773 0.71428,-6.42857 0.095,-1.4254 0,-2.85714 0,-4.28571 0,-2.61905 0,-5.2381 0,-7.85714 0,-5.47619 0,-10.95238 0,-16.42858 0,-0.49845 0.11435,-6.19986 0,-6.42857 -0.81504,-1.63008 -1.6083,-1.96776 -2.14286,-3.57143 -0.31043,-0.93131 -0.34969,-1.94566 -0.71428,-2.85714 -0.12506,-0.31263 -0.50394,-0.45135 -0.71429,-0.71428 -0.74368,-0.92961 -1.39917,-1.92754 -2.14285,-2.85715 -0.21035,-0.26293 -0.56371,-0.41311 -0.71429,-0.71428 -0.33672,-0.67344 -0.32691,-1.49723 -0.71429,-2.14286 -0.71428,-1.19048 -1.42857,-1.19048 -2.14285,-2.14286 -0.51508,-0.68677 -0.8923,-1.47251 -1.42857,-2.14285 -0.4207,-0.52587 -0.95239,-0.95238 -1.42858,-1.42858 -0.47619,-0.71428 -0.91349,-1.45608 -1.42857,-2.14285 -0.20203,-0.26938 -0.54104,-0.42556 -0.71428,-0.71429 -0.54783,-0.91305 -0.88074,-1.94409 -1.42857,-2.85714 -0.17324,-0.28873 -0.56371,-0.41312 -0.71429,-0.71429 -0.33672,-0.67343 -0.37757,-1.46942 -0.71429,-2.14285 -0.15058,-0.30117 -0.5275,-0.43412 -0.71428,-0.71429 -0.29532,-0.44298 -0.39485,-1.00265 -0.71429,-1.42857 -1.40545,-1.87394 -1.8583,-1.07432 -2.85714,-3.57143 -0.17685,-0.44213 0.17685,-0.98644 0,-1.42857 0.396,-1.76903 -1.61046,-1.79235 -2.14286,-2.85714 -0.10648,-0.21296 0.10648,-0.50133 0,-0.71429 -0.15058,-0.30117 -0.52751,-0.43412 -0.71428,-0.71429 -0.29532,-0.44298 -0.44037,-0.97204 -0.71429,-1.42857 -0.44167,-0.73612 -1.04465,-1.37502 -1.42857,-2.14285 -0.10648,-0.21296 0,-0.47619 0,-0.71429 0,-0.47619 0.15058,-0.97682 0,-1.42857 -0.10648,-0.31944 -0.47619,-0.47619 -0.71429,-0.71429 -0.23809,-0.47619 -0.58516,-0.91207 -0.71428,-1.42857 -0.11549,-0.46197 0.15058,-0.97682 0,-1.42857 -0.10648,-0.31944 -0.47619,-0.47619 -0.71429,-0.71429 -0.71428,-0.71428 -1.42857,-1.42857 -2.14285,-2.14285 -0.2381,-0.2381 -0.56371,-0.41312 -0.71429,-0.71429 -0.10648,-0.21296 0.10648,-0.50132 0,-0.71428 -0.15058,-0.30117 -0.47619,-0.47619 -0.71429,-0.71429 -0.47619,-0.47619 -0.95238,-0.95238 -1.42857,-1.42857 -0.71428,-0.71429 -1.42857,-1.42857 -2.14285,-2.14286 -0.47619,-0.47619 -0.88983,-1.02451 -1.42858,-1.42857 -0.42591,-0.31944 -1.05211,-0.33782 -1.42857,-0.71429 -0.37646,-0.37646 -0.41896,-0.98559 -0.71428,-1.42857 -0.54945,-0.82417 -1.59341,-1.31868 -2.14286,-2.14285 -0.29532,-0.44299 -0.41896,-0.98559 -0.71429,-1.42858 -0.37355,-0.56033 -0.95238,-0.95238 -1.42857,-1.42857 -0.71428,-0.71428 -1.42857,-1.42857 -2.14285,-2.14285 -0.47619,-0.47619 -0.86824,-1.05502 -1.42858,-1.42858 -0.44298,-0.29532 -0.98559,-0.41896 -1.42857,-0.71428 -0.56033,-0.37356 -0.82623,-1.1274 -1.42857,-1.42857 -0.21296,-0.10648 -0.50133,0.10648 -0.71428,0 -1.76529,-0.88265 0.24655,-0.71429 -1.42858,-0.71429 -0.71428,0 -1.44989,0.17324 -2.14285,0 -0.5165,-0.12912 -0.9235,-0.54593 -1.42857,-0.71428 -0.22588,-0.0753 -0.51618,0.13207 -0.71429,0 -0.78086,-0.52058 -1.63591,-2.14286 -2.85714,-2.14286 -0.75293,0 -1.42857,0.95238 -2.14286,0.71428 -0.95831,-0.31943 -2.85714,-1.42857 -2.14286,-2.14285 0.71429,-0.71429 1.42857,1.42857 2.14286,2.14285"
       id="path4134"
       inkscape:connector-curvature="0" />
    <path
       style="fill:none;fill-rule:evenodd;stroke:#000000;stroke-width:1px;stroke-linecap:butt;stroke-linejoin:miter;stroke-opacity:1"
       d="m 230,352.3622 c 0.2381,0 0.63899,-0.22587 0.71429,0 0.22587,0.67764 0,1.42858 0,2.14286 0,1.66667 0,3.33334 0,5 0,0.71429 -0.26528,1.47966 0,2.14286 0.2501,0.62527 0.95238,0.95238 1.42857,1.42857 0.71428,0.71429 1.58252,1.30236 2.14285,2.14286 0.41765,0.62647 0.47619,1.42857 0.71429,2.14285 0.95238,1.19048 1.97101,2.33085 2.85714,3.57143 0.91699,1.28379 1.22587,3.00193 2.14286,4.28572 0.58714,0.82199 1.42857,1.42857 2.14286,2.14285 0.95238,0.95239 1.77964,2.04903 2.85714,2.85715 0.85184,0.63887 1.94409,0.88074 2.85714,1.42857 1.42857,0.95238 2.85715,1.90476 4.28572,2.85714 0.23809,0.2381 0.43412,0.52751 0.71428,0.71429 0.88597,0.59064 1.90476,0.95238 2.85715,1.42857 0.47619,0.23809 0.92349,0.54593 1.42857,0.71428 0.93131,0.31044 1.88881,0.5529 2.85714,0.71429 0.46971,0.0783 1.00265,-0.21296 1.42857,0 0.60234,0.30117 0.86824,1.05502 1.42857,1.42857 0.23474,0.15649 3.16769,0 3.57143,0 1.90476,0 3.80953,0 5.71429,0 0.47619,0 0.95238,0 1.42857,0 0.71428,0 1.46522,0.22588 2.14286,0 0.81441,-0.27147 1.34579,-1.10974 2.14285,-1.42857 0.44213,-0.17685 0.97682,0.15059 1.42857,0 0.31944,-0.10648 0.43412,-0.52751 0.71429,-0.71429 0.88596,-0.59064 2.00531,-0.78969 2.85714,-1.42857 0.99514,-0.74635 1.956,-1.95599 2.85715,-2.85714 0.47619,-0.47619 0.95238,-0.95238 1.42857,-1.42857 0.23809,-0.2381 0.5637,-0.41312 0.71428,-0.71429 0.10648,-0.21296 -0.10648,-0.50132 0,-0.71428 0.15059,-0.30117 0.63262,-0.38762 0.71429,-0.71429 0.17324,-0.69296 -0.14008,-1.44244 0,-2.14286 0.10441,-0.52205 0.54593,-0.92349 0.71428,-1.42857 0.31044,-0.93131 0.3497,-1.94566 0.71429,-2.85714 0.12505,-0.31263 0.63262,-0.38762 0.71429,-0.71429 0.17324,-0.69295 0,-1.42857 0,-2.14285 0,-0.47619 0,-0.95238 0,-1.42857 0,-0.47619 -0.15059,-0.97682 0,-1.42858 0.10648,-0.31943 0.6078,-0.39484 0.71428,-0.71428 0.15059,-0.45175 0,-0.95238 0,-1.42857 0,-0.71429 0,-1.42857 0,-2.14286 0,-0.47619 -0.11549,-0.9666 0,-1.42857 0.12913,-0.5165 0.54593,-0.9235 0.71429,-1.42857 0.0753,-0.22588 0,-0.47619 0,-0.71429 0,-1.19047 0,-2.38095 0,-3.57143 0,-0.23809 -0.10648,-0.50132 0,-0.71428 0.15058,-0.30117 0.91631,-0.44491 0.71428,-0.71429 -0.71428,-0.95238 -1.90476,-1.42857 -2.85714,-2.14286"
       id="path4136"
       inkscape:connector-curvature="0" />
    <path
       style="fill:none;fill-rule:evenodd;stroke:#000000;stroke-width:1px;stroke-linecap:butt;stroke-linejoin:miter;stroke-opacity:1"
       d="m 250,302.3622 c -0.2381,0.2381 -0.71429,0.37757 -0.71429,0.71429 0,0.33672 0.52751,0.43412 0.71429,0.71429 0.29532,0.44298 0.51656,0.93425 0.71429,1.42857 0.27962,0.69907 0.56662,1.40455 0.71428,2.14285 0.68131,3.40657 -1.22783,-0.96018 0.71429,3.57143 0.62916,1.46805 1.42857,2.85715 2.14285,4.28572 0.2381,0.47619 0.58516,0.91207 0.71429,1.42857 0.11549,0.46197 -0.11549,0.9666 0,1.42857 0.26348,1.05393 1.289,2.28791 2.14286,2.85714 0.0588,0.0392 2.67992,0 2.85714,0 0.2381,0 0.48841,0.0753 0.71429,0 1.62334,-0.54111 2.94255,-1.99923 3.57142,-3.57143 0.17686,-0.44213 -0.11549,-0.96659 0,-1.42857 0.12913,-0.5165 0.54593,-0.92349 0.71429,-1.42857 0.0753,-0.22588 -0.0577,-0.4833 0,-0.71428 0.18261,-0.73045 0.53168,-1.41242 0.71429,-2.14286 0.0577,-0.23099 -0.16836,-0.54593 0,-0.71429 0.60702,-0.60702 1.53583,-0.82154 2.14285,-1.42857 1.3328,-1.3328 0.33197,-2.09251 0.71429,-2.85714 0.15058,-0.30117 0.5637,-0.41312 0.71428,-0.71429 0.10648,-0.21296 -0.0467,-0.48081 0,-0.71428 0.19253,-0.96263 0.47619,-1.90476 0.71429,-2.85715"
       id="path4138"
       inkscape:connector-curvature="0" />
    <path
       style="fill:none;fill-rule:evenodd;stroke:#000000;stroke-width:1px;stroke-linecap:butt;stroke-linejoin:miter;stroke-opacity:1"
       d="m 240,262.3622 c 0,0.4762 0.47619,1.42858 0,1.42858 -0.47619,0 0.33672,-1.76529 0,-1.42858 -0.75292,0.75293 -0.90029,1.93265 -1.42857,2.85715 -1.56064,2.73112 -1.42857,1.17618 -1.42857,2.85714 0,1.61374 0.10648,-0.31944 -0.71429,2.14286 -0.0753,0.22587 0.0753,0.48841 0,0.71428 -0.16836,0.50508 -0.54593,0.9235 -0.71428,1.42857 -0.15059,0.45176 0,0.95239 0,1.42858 0,0.47619 -0.15059,0.97681 0,1.42857 0.47379,1.42139 0.66666,0.33333 1.42857,0.71428 0.30117,0.15059 0.41311,0.5637 0.71428,0.71429 0.22763,0.11381 2.93306,0 3.57143,0 2.18852,0 4.39985,0.30007 6.42857,-0.71429 0.30117,-0.15058 0.47619,-0.47619 0.71429,-0.71428 0.23809,-0.2381 0.47619,-0.47619 0.71428,-0.71429 0.2381,-0.23809 0.56371,-0.41311 0.71429,-0.71428 0.10648,-0.21296 -0.10648,-0.50133 0,-0.71429 0.15058,-0.30117 0.47619,-0.47619 0.71429,-0.71429 1.1628,-1.1628 1.63513,-1.33396 2.14285,-2.85714 0.22815,-0.68443 -0.22057,-2.9097 0,-3.57143 0.10648,-0.31943 0.5637,-0.41311 0.71429,-0.71428 0.08,-0.1601 0,-2.68741 0,-2.85715 0,-0.32168 0.10869,-1.92547 0,-2.14285 -0.65033,-1.30066 -0.54184,-0.41871 -1.42857,-0.71429 -1.29282,0.43052 -1.32845,-1.1571 -2.14286,-1.42857 -0.40633,-0.13544 -2.89869,0 -3.57143,0 -0.32168,0 -1.92547,-0.10869 -2.14286,0 -0.60233,0.30117 -0.78969,1.21561 -1.42857,1.42857 -3.25163,0 -0.0408,-0.33672 -2.14285,0.71429 -0.21296,0.10648 -0.639,-0.22588 -0.71429,0 -0.22588,0.67763 0,1.42857 0,2.14285"
       id="path4144"
       inkscape:connector-curvature="0" />
    <path
       style="fill:none;fill-rule:evenodd;stroke:#000000;stroke-width:1px;stroke-linecap:butt;stroke-linejoin:miter;stroke-opacity:1"
       d="m 300,262.3622 c -1.66667,-0.71428 -3.27977,-1.56944 -5,-2.14285 -0.39377,-0.13126 -3.67954,0 -4.28571,0 -1.03611,0 -2.27148,-0.45706 -2.85715,0.71428 -0.10648,0.21296 0.0753,0.48841 0,0.71429 -0.16836,0.50508 -0.54592,0.92349 -0.71428,1.42857 -0.0753,0.22588 0,0.47619 0,0.71429 0,0.47619 0,0.95238 0,1.42857 0,1.19047 0,2.38095 0,3.57143 0,0.73903 -0.13608,4.4557 0,5 0.12912,0.5165 0.41896,0.98559 0.71428,1.42857 0.18678,0.28016 0.47619,0.47619 0.71429,0.71428 0.23809,0.2381 0.39485,0.60781 0.71428,0.71429 0.45176,0.15058 1.00266,-0.21296 1.42858,0 0.60233,0.30117 0.86824,1.05502 1.42857,1.42857 0.31998,0.21332 3.04348,-0.17598 3.57143,0 3.15301,1.051 -2.59512,0.71429 2.14285,0.71429 0.2381,0 0.47619,0 0.71429,0 0.23809,0 0.50133,-0.10648 0.71428,0 0.30117,0.15058 0.39485,0.6078 0.71429,0.71428 0.0324,0.0108 3.46875,0.0513 3.57143,0 0.30117,-0.15058 0.5637,-0.41311 0.71428,-0.71428 0.10648,-0.21296 0,-0.47619 0,-0.71429 0,-0.23809 0,-0.47619 0,-0.71429 0,-1.19047 0,-2.38095 0,-3.57142 0,-1.90477 0,-3.80953 0,-5.71429 0,-0.32168 0.1087,-1.92548 0,-2.14286 -0.78966,-1.57932 -0.44331,-0.22165 -1.42857,-0.71428 -0.30117,-0.15059 -0.47619,-0.47619 -0.71428,-0.71429 -0.71429,-0.71428 -1.23935,-1.6911 -2.14286,-2.14286 -1.08588,-0.54294 -2.37389,-0.51469 -3.57143,-0.71428 -0.46971,-0.0783 -1.03236,0.26414 -1.42857,0 -0.56033,-0.37356 -0.7619,-1.52381 -1.42857,-1.42857 -1.37437,0.19634 -2.38095,1.42857 -3.57143,2.14285"
       id="path4146"
       inkscape:connector-curvature="0" />
  </g>
</svg>
